<?xml version="1.0" encoding="iso-8859-1"?>
<!-- Generator: Adobe Illustrator 19.0.0, SVG Export Plug-In . SVG Version: 6.00 Build 0)  -->
<svg version="1.1" id="Capa_1" xmlns="http://www.w3.org/2000/svg" xmlns:xlink="http://www.w3.org/1999/xlink" x="0px" y="0px"
	 viewBox="0 0 512 512" style="enable-background:new 0 0 512 512;" xml:space="preserve">
<g transform="matrix(1.25 0 0 -1.25 0 45)">
	<g>
		<g>
			<path style="fill:#007934;" d="M409.6-271.2c0-25.134-20.378-45.511-45.511-45.511H45.511C20.378-316.711,0-296.334,0-271.2
				v204.8c0,25.134,20.378,45.511,45.511,45.511h318.578c25.134,0,45.511-20.378,45.511-45.511V-271.2z"/>
			<path style="fill:#FFE000;" d="M409.6-225.689H0v113.778h409.6V-225.689z"/>
			<path style="fill:#D52B1E;" d="M364.089-20.889H45.511C20.378-20.889,0-41.266,0-66.4v-45.511h409.6V-66.4
				C409.6-41.266,389.222-20.889,364.089-20.889"/>
			<g>
				<path style="fill:#FFFFFF;" d="M146.705-149.856c0.466-0.705,4.335-6.258,4.335-6.258h5.564l-2.264,3.129L146.705-149.856z"/>
				<path style="fill:#FFFFFF;" d="M155.045-144.338c0.466-0.694,4.335-6.258,4.335-6.258h5.564l-2.264,3.129L155.045-144.338z"/>
				<path style="fill:#FFFFFF;" d="M162.805-137.318c0.216-0.808,2.105-7.316,2.105-7.316l5.257-1.775l-1.138,3.686L162.805-137.318
					z"/>
			</g>
			<g>
				<path style="fill:#A05A2D;" d="M158.754-208.599c-0.455-0.239-1.013-0.057-1.24,0.41c-0.239,0.455-0.057,1.024,0.398,1.252
					l28.069,14.325c0.444,0.25,1.013,0.057,1.24-0.387c0.228-0.466,0.046-1.024-0.398-1.252L158.754-208.599z"/>
				<path style="fill:#A05A2D;" d="M164.375-213.742c-0.432-0.273-1.001-0.148-1.286,0.273s-0.171,1.001,0.262,1.297l26.271,17.374
					c0.432,0.284,1.001,0.182,1.286-0.25c0.284-0.432,0.171-0.99-0.262-1.286L164.375-213.742z"/>
				<path style="fill:#A05A2D;" d="M170.064-218.601c-0.341-0.375-0.933-0.421-1.308-0.091c-0.387,0.353-0.421,0.933-0.091,1.32
					l20.833,23.654c0.341,0.387,0.922,0.41,1.308,0.068c0.387-0.33,0.421-0.91,0.08-1.297L170.064-218.601z"/>
				<path style="fill:#A05A2D;" d="M197.382-199.691l-6.485-13.437l-1.161,1.183l-2.526-3.493l-6.861,3.721l8.511,16.668
					L197.382-199.691z"/>
			</g>
			<path style="fill:#D52B1E;" d="M200.169-220.284l4.631,22.005l-0.478,19.24l-33.348,31.858l-2.321-7.305l-4.631,3.709
				l-1.388-7.646c0,0-5.803,4.164-6.03,3.47s-1.616-17.613-2.082-27.113c-0.455-9.489-0.853-23.62,9.5-25.486
				c18.068-3.243,31.516,10.206,31.516,10.206s4.403-4.187,4.631-4.87c0.228-0.694-1.627-8.806-2.321-12.049
				C197.154-217.508,200.169-220.284,200.169-220.284"/>
			<path style="fill:#FFE000;" d="M176.981-153.372l-1.843-5.291l-3.004,1.616c0,0-7.68-38.696,4.847-41.7
				c12.527-3.015,13.926,2.082,13.926,2.082l-6.03,8.101l-4.528-2.071c0,0-2.185,5.985-2.185,14.097
				c0,7.248,1.161,14.393,1.161,14.393l2.287-1.616l0.478,5.325L176.981-153.372z"/>
			<path style="fill:#007934;" d="M189.736-164.92l-7.646,6.497l-0.478-5.325l-3.004,2.082c0,0-1.65-5.575-1.638-12.755
				c0.023-7.179,0.944-14.131,0.944-14.131s5.336-1.843,8.112,0C188.803-186.697,189.736-164.92,189.736-164.92"/>
			<path style="fill:#E8A30F;" d="M187.21-186.697c-6.019-2.583-18.33-7.225-15.087-12.993c3.254-5.78,12.743-3.459,18.773,3.038
				C196.927-190.167,187.21-186.697,187.21-186.697"/>
			<g>
				<path style="fill:#FFFFFF;" d="M262.94-149.856c-0.455-0.705-4.335-6.258-4.335-6.258h-5.564l2.264,3.129L262.94-149.856z"/>
				<path style="fill:#FFFFFF;" d="M254.544-144.338c-0.455-0.694-4.324-6.258-4.324-6.258h-5.564l2.264,3.129L254.544-144.338z"/>
				<path style="fill:#FFFFFF;" d="M246.795-137.318c-0.228-0.808-2.105-7.316-2.105-7.316l-5.268-1.775l1.149,3.686
					L246.795-137.318z"/>
			</g>
			<g>
				<path style="fill:#A05A2D;" d="M250.88-208.599c0.455-0.239,1.024-0.057,1.24,0.41c0.239,0.455,0.057,1.024-0.398,1.252
					l-28.058,14.325c-0.466,0.25-1.001,0.057-1.252-0.387c-0.239-0.466-0.057-1.024,0.41-1.252L250.88-208.599z"/>
				<path style="fill:#A05A2D;" d="M245.225-213.742c0.432-0.273,1.013-0.148,1.286,0.273c0.296,0.421,0.171,1.001-0.262,1.297
					l-26.271,17.374c-0.421,0.284-1.001,0.182-1.274-0.25c-0.284-0.432-0.171-0.99,0.25-1.286L245.225-213.742z"/>
				<path style="fill:#A05A2D;" d="M239.502-218.601c0.33-0.375,0.922-0.421,1.297-0.091c0.387,0.353,0.421,0.933,0.091,1.32
					l-20.833,23.654c-0.319,0.387-0.91,0.41-1.297,0.068c-0.387-0.33-0.421-0.91-0.091-1.297L239.502-218.601z"/>
				<path style="fill:#A05A2D;" d="M212.218-199.691l6.485-13.437l1.161,1.183l2.526-3.493l6.861,3.721l-8.511,16.668
					L212.218-199.691z"/>
			</g>
			<path style="fill:#D52B1E;" d="M209.431-220.284L204.8-198.28l0.478,19.24l33.348,31.858l2.332-7.305l4.631,3.709l1.388-7.646
				c0,0,5.78,4.164,6.007,3.47c0.25-0.694,1.638-17.613,2.094-27.113c0.466-9.489,0.853-23.62-9.489-25.486
				c-18.079-3.243-31.528,10.206-31.528,10.206s-4.403-4.187-4.631-4.87c-0.228-0.694,1.627-8.806,2.321-12.049
				C212.446-217.508,209.431-220.284,209.431-220.284"/>
			<path style="fill:#FFE000;" d="M232.619-153.372l1.832-5.291l3.015,1.616c0,0,7.691-38.696-4.847-41.7
				c-12.538-3.015-13.926,2.082-13.926,2.082l6.03,8.101l4.528-2.071c0,0,2.185,5.985,2.185,14.097
				c0,7.248-1.149,14.393-1.149,14.393l-2.298-1.616l-0.478,5.325L232.619-153.372z"/>
			<path style="fill:#007934;" d="M219.864-164.92l7.646,6.497l0.478-5.325l2.992,2.082c0,0,1.661-5.575,1.638-12.755
				c-0.023-7.179-0.944-14.131-0.944-14.131s-5.336-1.843-8.112,0C220.774-186.697,219.864-164.92,219.864-164.92"/>
			<path style="fill:#E8A30F;" d="M222.39-186.697c6.019-2.583,18.318-7.225,15.076-12.993c-3.243-5.78-12.743-3.459-18.762,3.038
				C212.673-190.167,222.39-186.697,222.39-186.697"/>
			<path style="fill:#D52B1E;" d="M185.81-143.996c1.946-2.298,1.855-5.564-0.205-7.305c-2.037-1.729-5.279-1.274-7.225,1.024
				c-1.934,2.287-1.843,5.552,0.193,7.293C180.634-141.243,183.876-141.698,185.81-143.996"/>
			<path style="fill:#E7E7E7;" d="M224.711-143.996c-1.934-2.298-1.843-5.564,0.216-7.305c2.048-1.729,5.268-1.274,7.225,1.024
				c1.946,2.287,1.855,5.552-0.193,7.293C229.899-141.243,226.668-141.698,224.711-143.996"/>
			<g transform="translate(18 19.03)">
				<path style="fill:#007934;" d="M186.8-176.111v8.34c0,0-13.676,6.485-14.598,14.598c-0.922,8.112,3.709,15.519,2.082,16.68
					c-1.616,1.161-10.194-6.258-10.65-14.131c-0.466-7.873,7.509-19.74,12.732-22.016C181.612-174.916,186.8-176.111,186.8-176.111"
					/>
				<path style="fill:#007934;" d="M186.8-176.111v8.34c0,0,13.665,6.485,14.598,14.598c0.922,8.112-3.709,15.519-2.082,16.68
					c1.616,1.161,10.194-6.258,10.65-14.131c0.478-7.873-7.498-19.74-12.732-22.016C191.988-174.916,186.8-176.111,186.8-176.111"/>
			</g>
			<path style="fill:#FFFFFF;" d="M204.8-148.468c0,0,1.388,4.87,10.433,7.646c9.034,2.788,17.601,4.87,20.844,5.097
				c3.254,0.239-12.857,6.485-16.68,6.963c-3.823,0.444-8.567-0.478-9.273-3.254c-0.694-2.776-1.843-1.855-5.325-2.321
				c-3.482-0.455-5.791,2.788-7.418,5.097c-1.616,2.321-7.771,1.161-10.775,0.922c-3.004-0.216-14.484-7.407-14.484-7.407
				s19.934-3.243,24.11-5.325c4.164-2.094,0.228-9.512-0.933-11.594S202.194-152.006,204.8-148.468"/>
			<path d="M204.8-148.468c0,0,1.388,4.87,10.433,7.646c9.034,2.788,17.601,4.87,20.844,5.097c3.254,0.239-11.81,4.87-15.644,5.336
				c-3.823,0.455-6.827,0.455-7.521-2.321c-0.694-2.776-4.631-1.161-8.112-1.627c-3.482-0.455-7.418,0.694-9.034,3.015
				c-1.627,2.321-4.403,1.388-7.418,1.161c-3.004-0.228-16.225-5.564-16.225-5.564s19.934-3.243,24.11-5.325
				c4.164-2.094,0.228-9.512-0.933-11.594S202.194-152.006,204.8-148.468"/>
			<path style="fill:#00A6DE;" d="M180.008-176.264c0,14.962,11.105,27.102,24.792,27.102c13.699,0,24.781-12.14,24.781-27.102
				c0-14.973-11.082-27.113-24.781-27.113C191.113-203.377,180.008-191.237,180.008-176.264"/>
			<path style="fill:#E8A30F;" d="M186.607-176.264c0,11.765,8.146,21.311,18.193,21.311c10.035,0,18.182-9.546,18.182-21.311
				c0-11.787-8.146-21.322-18.182-21.322C194.753-197.586,186.607-188.051,186.607-176.264"/>
			<path style="fill:#D52B1E;" d="M196.927-166.98c0,4.346,3.527,7.873,7.873,7.873c4.358,0,7.885-3.527,7.885-7.873
				c0-4.358-3.527-7.885-7.885-7.885C200.454-174.864,196.927-171.337,196.927-166.98"/>
			<path style="fill:#007934;" d="M204.8-197.586c9.66,0,17.567,8.818,18.159,19.968c-5.939,2.207-15.724,10.627-18.159,10.627
				c-2.549,0-5.791-2.788-9.967-6.497c-2.139-1.911-5.45-3.447-8.169-4.483C187.415-188.939,195.243-197.586,204.8-197.586"/>
			<path style="fill:#E8A30F;" d="M207.121-136.18c0-1.161-2.389-2.094-5.325-2.094c-2.947,0-5.336,0.933-5.336,2.094
				c0,1.149,2.389,2.082,5.336,2.082C204.732-134.098,207.121-135.031,207.121-136.18"/>
			<path style="fill:#FFFFFF;" d="M195.584-186.697h5.564l1.616,4.631l2.082-2.537l-2.31-6.724h-5.097L195.584-186.697z"/>
			<g>
				<path style="fill:#B37D0A;" d="M209.658-190.645c0-2.173-1.081-3.948-2.423-3.948s-2.435,1.775-2.435,3.948
					s1.092,3.937,2.435,3.937S209.658-188.472,209.658-190.645"/>
				<path style="fill:#B37D0A;" d="M213.14-194.582c0-0.262-0.216-0.466-0.466-0.466c-0.25,0-0.455,0.205-0.455,0.466v12.049
					c0,0.25,0.205,0.466,0.455,0.466c0.25,0,0.466-0.216,0.466-0.466V-194.582z"/>
			</g>
			<path style="fill:#32B266;" d="M216.633-181.372c0-2.048-1.809-3.709-4.05-3.709s-4.05,1.661-4.05,3.709
				c0,2.048,1.809,3.709,4.05,3.709S216.633-179.324,216.633-181.372"/>
		</g>
	</g>
</g>
<g>
</g>
<g>
</g>
<g>
</g>
<g>
</g>
<g>
</g>
<g>
</g>
<g>
</g>
<g>
</g>
<g>
</g>
<g>
</g>
<g>
</g>
<g>
</g>
<g>
</g>
<g>
</g>
<g>
</g>
</svg>
