<svg xmlns="http://www.w3.org/2000/svg" width="165" height="226.428" viewBox="0 0 165 226.428">
  <g id="Group_610" data-name="Group 610" transform="translate(-96.722 -142)">
    <path id="Path_954" data-name="Path 954" d="M216.535,24.8a21.8,21.8,0,0,1,0,30.837L154.86,117.309A21.805,21.805,0,1,0,185.7,148.147l-15.419,15.418A43.61,43.61,0,1,1,108.6,101.891L185.7,24.8A21.808,21.808,0,0,1,216.535,24.8Z" transform="translate(0.896 123.588)" fill="#7120ea"/>
    <path id="Path_955" data-name="Path 955" d="M287.521,171.875a21.8,21.8,0,0,1,0,30.837L256.684,233.55a21.805,21.805,0,0,0,30.837,30.837L272.1,279.806a43.611,43.611,0,1,1-61.675-61.675l46.256-46.256A21.808,21.808,0,0,1,287.521,171.875Z" transform="translate(-32.188 75.847)" fill="#7120ea"/>
  </g>
</svg>
