<?xml version="1.0" encoding="utf-8"?>
<!-- Generator: Adobe Illustrator 23.0.5, SVG Export Plug-In . SVG Version: 6.00 Build 0)  -->
<svg version="1.1" id="Capa_1" xmlns="http://www.w3.org/2000/svg" xmlns:xlink="http://www.w3.org/1999/xlink" x="0px" y="0px"
	 viewBox="0 0 512 512" style="enable-background:new 0 0 512 512;" xml:space="preserve">
<style type="text/css">
	.st0{fill:none;}
	.st1{fill:#7120EA;}
</style>
<g id="Ellipse_100">
	<g>
		<circle class="st0" cx="256" cy="256" r="236"/>
	</g>
	<g>
		<path class="st1" d="M256,492C125.9,492,20,386.1,20,256S125.9,20,256,20s236,105.9,236,236S386.1,492,256,492z M256,44.8
			C139.6,44.8,44.8,139.6,44.8,256S139.6,467.2,256,467.2S467.2,372.4,467.2,256S372.4,44.8,256,44.8z"/>
	</g>
</g>
<g>
	<path id="Path_954" class="st1" d="M311.6,98.6c12.5,12.5,12.5,32.7,0,45.2c0,0,0,0,0,0l-90.5,90.5c-12.5,12.5-12.5,32.7,0,45.2
		c12.5,12.5,32.7,12.5,45.2,0l-22.6,22.6c-25,25-65.5,25-90.5,0c-25-25-25-65.5,0-90.5L266.4,98.6C278.9,86.2,299.1,86.2,311.6,98.6
		z"/>
	<path id="Path_955" class="st1" d="M368.1,245.6c12.5,12.5,12.5,32.7,0,45.2c0,0,0,0,0,0l-45.2,45.2c-12.5,12.5-12.5,32.7,0,45.2
		s32.7,12.5,45.2,0L345.5,404c-25,25-65.5,25-90.5,0c-25-25-25-65.5,0-90.5l67.9-67.9C335.3,233.2,355.6,233.2,368.1,245.6z"/>
</g>
</svg>
